<svg xmlns="http://www.w3.org/2000/svg" viewBox="0 0 282.81 80.23"><title>Instagram logo</title><path d="M385.15,472.17C379.36,474.59,373,481.44,371,490c-2.55,10.89,8,15.49,8.92,14,1-1.77-1.9-2.37-2.5-8-.78-7.3,2.61-15.45,6.88-19,.79-.66.76.26.76,2,0,3.06-.17,30.52-.17,36.26,0,7.76-.32,10.2-.9,12.63s-1.52,4.11-.81,4.75,4.18-1,6.14-3.72c2.35-3.28,3.17-7.23,3.32-11.51.18-5.16.17-13.35.18-18,0-4.28.07-16.83-.08-24.37,0-1.85-5.17-3.79-7.59-2.78m205.55,36.3a23.7,23.7,0,0,1-2.19,9.41c-2.14,4.3-6.59,5.64-8.48-.55-1-3.37-1.08-9-.34-13.71s2.86-8.41,6.34-8.09,5,4.75,4.67,12.94Zm-57.93,25c0,6.7-1.1,12.57-3.36,14.28-3.21,2.42-7.52.6-6.62-4.28.79-4.33,4.52-8.74,10-14.14,0,0,0,1.23,0,4.15Zm-.88-25.05a26.51,26.51,0,0,1-2.19,9.45c-2.14,4.3-6.63,5.65-8.48-.55-1.27-4.23-1-9.71-.34-13.16.82-4.48,2.79-8.63,6.34-8.63s5.15,3.79,4.67,12.9Zm-33.56-.06a24,24,0,0,1-2.19,9.5c-2.2,4.27-6.56,5.63-8.48-.55-1.39-4.45-.91-10.53-.34-13.81.86-4.87,3-8.32,6.34-8s5.1,4.75,4.67,12.84Zm153.8,4.54c-.84,0-1.22.87-1.54,2.32-1.1,5.07-2.26,6.21-3.75,6.21-1.67,0-3.16-2.51-3.55-7.53a167.64,167.64,0,0,1,.13-18.45c.08-1.49-.33-3-4.32-4.4-1.71-.62-4.21-1.54-5.45,1.46a74.56,74.56,0,0,0-5.2,17.91c0,.14-.19.17-.22-.16a139.12,139.12,0,0,1-.72-14.51,4.35,4.35,0,0,0-2.15-4.15c-1.17-.74-4.71-2-6-.49-1.1,1.27-2.38,4.68-3.71,8.72-1.08,3.29-1.83,5.51-1.83,5.51s0-8.86,0-12.23a1.72,1.72,0,0,0-1.13-1.77,23.61,23.61,0,0,0-4.5-.92c-1.22,0-1.52.68-1.52,1.67,0,.13-.19,11.67-.19,19.74,0,.35,0,.73,0,1.14-.67,3.71-2.86,8.74-5.24,8.74s-3.5-2.11-3.5-11.73c0-5.61.17-8.05.25-12.11,0-2.34.14-4.13.14-4.54,0-1.25-2.18-1.88-3.18-2.11a9.41,9.41,0,0,0-2.57-.29,1.61,1.61,0,0,0-1.66,1.57c0,.47,0,1.36,0,1.36a9.29,9.29,0,0,0-4.6-3.73c-3.6-1.07-7.36-.12-10.19,3.84a23.39,23.39,0,0,0-4.15,11.85,35.17,35.17,0,0,0,.43,10.77c-.84,3.63-2.4,5.11-4.1,5.11-2.48,0-4.27-4-4.06-11,.14-4.6,1.06-7.83,2.06-12.49.43-2,.08-3-.79-4s-2.51-1.38-5-.81c-1.75.41-4.25.85-6.54,1.19a13.24,13.24,0,0,0,.25-1.52c.6-5.09-4.94-4.68-6.7-3.05a6.27,6.27,0,0,0-2,4.18,4.92,4.92,0,0,0,2.23,4.81,49.72,49.72,0,0,1-5.23,13,56.16,56.16,0,0,1-3.26,5.12q0-.89,0-1.78c0-8.42.09-15,.13-17.43s.14-4.09.14-4.49c0-.91-.55-1.26-1.66-1.7a11.76,11.76,0,0,0-3.35-.75c-1.52-.12-2.43.69-2.41,1.64,0,.18,0,1.28,0,1.28a9.29,9.29,0,0,0-4.6-3.73c-3.6-1.07-7.36-.12-10.19,3.84A25.36,25.36,0,0,0,513,505.82a36.21,36.21,0,0,0,.21,10.13c-.57,2.83-2.22,5.79-4.08,5.79-2.38,0-3.73-2.11-3.73-11.73,0-5.61.17-8.05.25-12.11,0-2.34.14-4.13.14-4.54,0-1.25-2.18-1.88-3.18-2.11A9.25,9.25,0,0,0,500,491a1.71,1.71,0,0,0-1.57,1.51v1.42a9.29,9.29,0,0,0-4.6-3.73c-3.6-1.07-7.34-.11-10.19,3.84-1.86,2.58-3.37,5.43-4.15,11.75a39.6,39.6,0,0,0-.31,5.14c-.74,4.54-4,9.78-6.71,9.78-1.57,0-3.07-3-3.07-9.53,0-8.64.54-21,.63-22.14l4-.07c1.69,0,3.22,0,5.47-.09,1.13-.06,2.22-4.11,1.05-4.61a40.33,40.33,0,0,0-5.74-.46c-1.24,0-4.71-.28-4.71-.28s.31-8.17.38-9-.87-1.09-1.4-1.31a19.23,19.23,0,0,0-3.83-1.1c-1.9-.39-2.76,0-2.93,1.6-.25,2.44-.39,9.57-.39,9.57-1.4,0-6.16-.27-7.56-.27s-2.7,5.58-.9,5.65c2.06.08,5.66.15,8,.22,0,0-.11,12.51-.11,16.37,0,.41,0,.81,0,1.19a18.89,18.89,0,0,1-5.93,10.53c1-4.52-1-7.92-4.68-10.79-1.34-1.06-4-3.06-7-5.26a17.93,17.93,0,0,0,3.25-5.11c1.08-2.42,1.13-5.18-1.53-5.79-4.38-1-8,2.21-9.08,5.65a6.55,6.55,0,0,0,1.25,6.69l.38.46c-1,1.91-2.35,4.48-3.5,6.47-3.2,5.53-5.61,9.9-7.43,9.9-1.46,0-1.44-4.44-1.44-8.6,0-3.58.26-9,.48-14.55.07-1.85-.85-2.9-2.4-3.85-.94-.58-2.95-1.72-4.11-1.72-1.74,0-6.75.24-11.49,13.95-.6,1.73-1.77,4.88-1.77,4.88l.1-16.49a1.15,1.15,0,0,0-.68-1,11.7,11.7,0,0,0-4.83-1.32q-1.36,0-1.35,1.26l-.17,25.79a37.91,37.91,0,0,0,.24,5.25,5.5,5.5,0,0,0,.89,2.3,2.56,2.56,0,0,0,1.57,1c.69.14,4.45.62,4.64-.81a52.82,52.82,0,0,1,2.22-10.53c3.07-10.81,7.08-16.09,9-18,.33-.33.71-.35.69.19-.08,2.37-.36,8.29-.55,13.33-.51,13.47,1.94,16,5.44,16,2.68,0,6.45-2.66,10.5-9.4,2.52-4.2,5-8.32,6.73-11.28,1.23,1.14,2.6,2.36,4,3.66,3.2,3,4.25,5.92,3.55,8.65-.53,2.09-2.54,4.25-6.11,2.15-1-.61-1.48-1.08-2.53-1.77a1.8,1.8,0,0,0-1.94-.09,6.89,6.89,0,0,0-2.54,3.88c-.42,1.54,1.12,2.36,2.73,3.07a21.15,21.15,0,0,0,6.24,1.23c7.37.25,13.28-3.56,17.39-13.38.74,8.48,3.87,13.28,9.31,13.28,3.64,0,7.29-4.7,8.88-9.33a16.4,16.4,0,0,0,2,4.91c4.19,6.64,12.33,5.21,16.41-.43a10.51,10.51,0,0,0,1.46-2.37,7.69,7.69,0,0,0,7.34,7.19c2.75,0,5.59-1.3,7.58-5.78a13.7,13.7,0,0,0,.77,1.39c4.19,6.64,12.33,5.21,16.41-.43l.51-.72.12,3.5-3.76,3.45c-6.3,5.78-11.09,10.16-11.44,15.27-.45,6.51,4.83,8.93,8.82,9.25a11.26,11.26,0,0,0,10.11-5.29c2-2.89,3.25-9.1,3.15-15.23,0-2.46-.1-5.58-.15-8.93a71.54,71.54,0,0,0,7-9.62,72.82,72.82,0,0,0,6.56-14s2.33,0,4.82-.14c.8-.05,1,.11.88.69s-3.14,12.14-.44,19.75c1.85,5.21,6,6.89,8.5,6.89,2.9,0,5.67-2.19,7.15-5.44a11.45,11.45,0,0,0,.57,1c4.19,6.64,12.3,5.21,16.41-.43a16.82,16.82,0,0,0,1.46-2.37c.88,5.51,5.17,7.22,7.63,7.22s5-1,7-5.71a21.1,21.1,0,0,0,.42,4.26c.12.32.85.73,1.38.93a10.57,10.57,0,0,0,5.61.28c.61-.12,1.09-.61,1.15-1.88.17-3.33.07-8.92,1.07-13.07,1.69-7,3.27-9.68,4-11,.42-.75.89-.87.91-.08,0,1.61.12,6.32.77,12.66.48,4.66,1.13,7.42,1.62,8.29a4.56,4.56,0,0,0,4.57,2.61c.9,0,2.79-.25,2.62-1.84a50.64,50.64,0,0,1,1.73-12.42,60.51,60.51,0,0,1,3.56-10c.24-.55.35-.12.35,0-.14,3.09-.45,13.19.81,18.72,1.71,7.49,6.64,8.32,8.36,8.32,3.67,0,6.67-2.79,7.69-10.14.24-1.77-.12-3.13-1.2-3.13" transform="translate(-370.59 -471.89)" style="fill:#262626"/></svg>